# xmcd
#
# Track frame offsets: 
#        150
#        19077
#        36115
#        53051
#        77992
#        92940
#        105684
#        125784
#        145185
#        159080
#        180957
#        197177
#        211700
#
# Disc length: 3021 seconds
#
# Revision: 1
# Processed by: cddbd v1.5.2PL0 Copyright (c) Steve Scherf et al.
# Submitted via: ExactAudioCopy v0.99pb5
#
DISCID=a90bcb0d
DTITLE=Ray Harris - East End West End North End South End
DYEAR=2009
DGENRE=Bluegrass
TTITLE0=Shawville Girl
TTITLE1=Theatre Of Your Mind
TTITLE2=Too Many Places In This Town
TTITLE3=The Honest Truth
TTITLE4=Singin' The Blues
TTITLE5=I'd Rather Take the Train
TTITLE6=Just Another Song About A Train
TTITLE7=Madwoman Blues
TTITLE8=Things To Remember
TTITLE9=Strange Days (Have Found Us Indeed)
TTITLE10=God's Gonna Get You
TTITLE11=Hey Nonny No!
TTITLE12=If You See Me Getting Smaller...
EXTD=
EXTT0=
EXTT1=
EXTT2=
EXTT3=
EXTT4=
EXTT5=
EXTT6=
EXTT7=
EXTT8=
EXTT9=
EXTT10=
EXTT11=
EXTT12=
PLAYORDER=
